<?xml version="1.0" encoding="UTF-8" standalone="no"?><!DOCTYPE svg PUBLIC "-//W3C//DTD SVG 1.1//EN" "http://www.w3.org/Graphics/SVG/1.1/DTD/svg11.dtd"><svg width="100%" height="100%" viewBox="0 0 128 128" version="1.1" xmlns="http://www.w3.org/2000/svg" xmlns:xlink="http://www.w3.org/1999/xlink" xml:space="preserve" xmlns:serif="http://www.serif.com/" style="fill-rule:evenodd;clip-rule:evenodd;stroke-linecap:round;stroke-linejoin:round;stroke-miterlimit:10;"><g id="Layer_2"><ellipse cx="65.333" cy="111.814" rx="47.667" ry="11.813" style="fill:#b8cbcd;fill-opacity:0.498039;"/><g><path d="M99,102c0,5.5 -4.5,10 -10,10l-47,0c-5.5,0 -10,-4.5 -10,-10l0,-84c0,-5.5 4.5,-10 10,-10l47,0c5.5,0 10,4.5 10,10l0,84Z" style="fill:#b9e3ed;fill-rule:nonzero;"/><path d="M99,102c0,5.5 -4.5,10 -10,10l-47,0c-5.5,0 -10,-4.5 -10,-10l0,-84c0,-5.5 4.5,-10 10,-10l47,0c5.5,0 10,4.5 10,10l0,84Z" style="fill:none;stroke:#324654;stroke-width:6px;"/></g><circle cx="65" cy="101" r="4" style="fill:#324654;"/><rect x="43" y="19" width="45" height="72" style="fill:#fff;"/><path d="M56.613,29l0,19.294l5.179,0l4.208,-0.008l4.855,0.008l4.531,0l0,-19.294l-18.773,0Z" style="fill:#fff;fill-rule:nonzero;stroke:#324654;stroke-width:2.54px;"/><path d="M43,89l0,-70l43,0" style="fill:none;stroke:#6299b7;stroke-width:4px;stroke-linecap:square;"/><rect x="51.565" y="59.535" width="28.869" height="0.1" style="fill:#fff;stroke:#324654;stroke-width:3px;stroke-miterlimit:1.5;"/><rect x="51.565" y="68.148" width="28.869" height="0.1" style="fill:#fff;stroke:#324654;stroke-width:3px;stroke-miterlimit:1.5;"/><rect x="51.565" y="76.774" width="28.869" height="0.1" style="fill:#fff;stroke:#324654;stroke-width:3px;stroke-miterlimit:1.5;"/></g></svg>