<?xml version="1.0" encoding="UTF-8" standalone="no"?><!DOCTYPE svg PUBLIC "-//W3C//DTD SVG 1.1//EN" "http://www.w3.org/Graphics/SVG/1.1/DTD/svg11.dtd"><svg width="100%" height="100%" viewBox="0 0 128 128" version="1.1" xmlns="http://www.w3.org/2000/svg" xmlns:xlink="http://www.w3.org/1999/xlink" xml:space="preserve" xmlns:serif="http://www.serif.com/" style="fill-rule:evenodd;clip-rule:evenodd;stroke-linecap:round;stroke-linejoin:round;stroke-miterlimit:10;"><g><ellipse cx="61.563" cy="115.042" rx="47.667" ry="11.813" style="fill:#b8cbcd;fill-opacity:0.5;"/><g><path d="M67.393,23.77c-1.506,-1.604 -4.538,-2.916 -6.738,-2.916l-38.759,0c-2.2,0 -4,1.8 -4,4l0,83.894c0,2.2 1.8,4.003 4,4.006l62,0.094c2.2,0.003 4,-1.794 4,-3.994l0,-59.251c0,-2.2 -1.232,-5.312 -2.738,-6.916l-17.765,-18.917Z" style="fill:#ffbab0;fill-rule:nonzero;"/><path d="M67.393,23.77c-1.506,-1.604 -4.538,-2.916 -6.738,-2.916l-38.759,0c-2.2,0 -4,1.8 -4,4l0,83.894c0,2.2 1.8,4.003 4,4.006l62,0.094c2.2,0.003 4,-1.794 4,-3.994l0,-59.251c0,-2.2 -1.232,-5.312 -2.738,-6.916l-17.765,-18.917Z" style="fill:none;stroke:#783741;stroke-width:6px;"/></g><g><path d="M91.393,5.77c-1.506,-1.604 -4.538,-2.916 -6.738,-2.916l-38.759,0c-2.2,0 -4,1.8 -4,4l0,83.894c0,2.2 1.8,4.003 4,4.006l62,0.094c2.2,0.003 4,-1.794 4,-3.994l0,-59.251c0,-2.2 -1.232,-5.312 -2.738,-6.916l-17.765,-18.917Z" style="fill:#b9e3ed;fill-rule:nonzero;"/><path d="M91.393,5.77c-1.506,-1.604 -4.538,-2.916 -6.738,-2.916l-38.759,0c-2.2,0 -4,1.8 -4,4l0,83.894c0,2.2 1.8,4.003 4,4.006l62,0.094c2.2,0.003 4,-1.794 4,-3.994l0,-59.251c0,-2.2 -1.232,-5.312 -2.738,-6.916l-17.765,-18.917Z" style="fill:none;stroke:#324654;stroke-width:6px;"/></g><path d="M87.896,3.854l0,25l23,0" style="fill:none;stroke:#324654;stroke-width:4px;"/><path d="M78.765,64.719l0,14.294c0,0.78 -0.199,1.577 -0.597,2.374c-0.781,1.577 -2.175,2.374 -4.167,2.374l-2.374,0l0,4.763l2.374,0c3.967,0 6.756,-1.593 8.332,-4.763c0.797,-1.577 1.195,-3.171 1.195,-4.748l0,-14.294l-4.763,0Z" style="fill:#324654;fill-rule:nonzero;"/><path d="M89.273,87.097c1.908,0.946 4.034,1.427 6.375,1.427c2.541,0 4.666,-0.813 6.342,-2.44c1.543,-1.51 2.323,-3.236 2.323,-5.196c0,-1.976 -0.796,-3.586 -2.406,-4.831c-1.543,-1.211 -3.619,-1.808 -6.259,-1.808c-1.063,0 -1.943,-0.133 -2.657,-0.416c-0.814,-0.332 -1.229,-0.814 -1.229,-1.461c0,-0.648 0.316,-1.263 0.93,-1.827c0.764,-0.714 1.744,-1.063 2.956,-1.063c1.511,0 2.873,0.282 4.068,0.83c0.614,0.283 1.079,0.565 1.394,0.864l3.369,-3.37c-0.597,-0.598 -1.411,-1.145 -2.439,-1.66c-1.909,-0.945 -4.034,-1.427 -6.392,-1.427c-2.541,0 -4.649,0.813 -6.325,2.456c-1.543,1.494 -2.323,3.22 -2.323,5.197c0,1.81 0.697,3.337 2.091,4.548c1.576,1.394 3.751,2.091 6.557,2.091c1.079,0 1.96,0.133 2.657,0.415c0.83,0.332 1.246,0.814 1.246,1.462c0,0.648 -0.316,1.246 -0.93,1.827c-0.764,0.697 -1.761,1.046 -2.973,1.046c-1.511,0 -2.856,-0.282 -4.068,-0.83c-0.614,-0.283 -1.095,-0.565 -1.411,-0.88l-1.659,1.71l-1.676,1.693c0.597,0.581 1.41,1.128 2.439,1.643Z" style="fill:#324654;fill-rule:nonzero;"/><rect x="52.896" y="17.811" width="23.881" height="0.066" style="fill:#556f7c;fill-opacity:0;stroke:#324654;stroke-opacity:0.737255;stroke-width:2.94px;stroke-miterlimit:1.5;"/><rect x="52.896" y="28.854" width="23.881" height="0.066" style="fill:#556f7c;fill-opacity:0;stroke:#324654;stroke-opacity:0.737255;stroke-width:2.94px;stroke-miterlimit:1.5;"/><rect x="52.896" y="39.987" width="49.672" height="0.066" style="fill:#556f7c;fill-opacity:0;stroke:#324654;stroke-opacity:0.737255;stroke-width:2.94px;stroke-miterlimit:1.5;"/><rect x="52.896" y="51.089" width="49.672" height="0.066" style="fill:#556f7c;fill-opacity:0;stroke:#324654;stroke-opacity:0.737255;stroke-width:2.94px;stroke-miterlimit:1.5;"/></g></svg>