<?xml version="1.0" encoding="UTF-8" standalone="no"?><!DOCTYPE svg PUBLIC "-//W3C//DTD SVG 1.1//EN" "http://www.w3.org/Graphics/SVG/1.1/DTD/svg11.dtd"><svg width="100%" height="100%" viewBox="0 0 128 128" version="1.1" xmlns="http://www.w3.org/2000/svg" xmlns:xlink="http://www.w3.org/1999/xlink" xml:space="preserve" xmlns:serif="http://www.serif.com/" style="fill-rule:evenodd;clip-rule:evenodd;stroke-linecap:round;stroke-linejoin:round;stroke-miterlimit:10;"><g><ellipse cx="64.563" cy="114.042" rx="47.667" ry="11.813" style="fill:#b8cbcd;fill-opacity:0.5;"/><path d="M83.896,107.354c0,4.143 -3.357,7.5 -7.5,7.5l-23,0c-4.143,0 -7.5,-3.357 -7.5,-7.5c0,-4.143 3.357,-7.5 7.5,-7.5l23,0c4.142,0 7.5,3.358 7.5,7.5Z" style="fill:#b9e3ed;fill-rule:nonzero;stroke:#324654;stroke-width:6px;"/><g><path d="M117.896,66.854c0,5.5 -4.5,10 -10,10l-86,0c-5.5,0 -10,-4.5 -10,-10l0,-52c0,-5.5 4.5,-10 10,-10l86,0c5.5,0 10,4.5 10,10l0,52Z" style="fill:#b9e3ed;fill-rule:nonzero;"/><path d="M117.896,66.854c0,5.5 -4.5,10 -10,10l-86,0c-5.5,0 -10,-4.5 -10,-10l0,-52c0,-5.5 4.5,-10 10,-10l86,0c5.5,0 10,4.5 10,10l0,52Z" style="fill:none;stroke:#324654;stroke-width:6px;"/></g><path d="M69.896,84.854l3,21l-16,0l3,-21l10,0Z" style="fill:#b9e3ed;fill-rule:nonzero;stroke:#324654;stroke-width:6px;"/><path d="M66.224,85.905l1.672,9.949l-9.938,0l1.672,-9.949l6.594,0Z" style="fill:#324654;fill-opacity:0.2;fill-rule:nonzero;"/><g><path d="M117.896,75.854c0,5.5 -4.5,10 -10,10l-86,0c-5.5,0 -10,-4.5 -10,-10l0,-52c0,-5.5 4.5,-10 10,-10l86,0c5.5,0 10,4.5 10,10l0,52Z" style="fill:#b9e3ed;fill-rule:nonzero;"/><path d="M117.896,75.854c0,5.5 -4.5,10 -10,10l-86,0c-5.5,0 -10,-4.5 -10,-10l0,-52c0,-5.5 4.5,-10 10,-10l86,0c5.5,0 10,4.5 10,10l0,52Z" style="fill:none;stroke:#324654;stroke-width:4px;"/></g><circle cx="64.396" cy="77.354" r="2.5" style="fill:#324654;"/><rect x="22.896" y="23.854" width="84" height="46" style="fill:#e1fbff;stroke:#324654;stroke-width:4px;"/><path d="M37.896,61.522l12.747,-15.026l21.75,8.125l19.253,-18.767l-6.253,0" style="fill:#e1fbff;fill-rule:nonzero;stroke:#324654;stroke-width:4px;"/><circle cx="50.721" cy="46.471" r="4.5" style="fill:#e1fbff;stroke:#324654;stroke-width:4px;"/><circle cx="72.387" cy="54.286" r="4.5" style="fill:#e1fbff;stroke:#324654;stroke-width:4px;"/><path d="M91.896,41.667l0,-5.813" style="fill:#e1fbff;fill-rule:nonzero;stroke:#324654;stroke-width:4px;"/><path d="M117.896,13.854l0,62c0,5.5 -4.5,10 -10,10l-86,0c-5.5,0 -10,-4.5 -10,-10l0,-62" style="fill:none;stroke:#324654;stroke-width:6px;"/></g></svg>