<?xml version="1.0" encoding="UTF-8" standalone="no"?><!DOCTYPE svg PUBLIC "-//W3C//DTD SVG 1.1//EN" "http://www.w3.org/Graphics/SVG/1.1/DTD/svg11.dtd"><svg width="100%" height="100%" viewBox="0 0 612 173" version="1.1" xmlns="http://www.w3.org/2000/svg" xmlns:xlink="http://www.w3.org/1999/xlink" xml:space="preserve" xmlns:serif="http://www.serif.com/" style="fill-rule:evenodd;clip-rule:evenodd;stroke-linejoin:round;stroke-miterlimit:1.41421;"><g id="g382"><g id="g364"><path id="text360" d="M87.232,17.321c-5.754,0 -8.63,-2.877 -8.63,-8.63c0,-5.754 2.876,-8.631 8.63,-8.631l30.009,0c5.842,0 8.763,2.877 8.763,8.631c0,0.354 -0.044,0.575 -0.132,0.664l1.062,90.158l29.743,-28.814c-5.666,0 -8.498,-2.877 -8.498,-8.63c0,-5.754 2.877,-8.631 8.631,-8.631l50.456,0c5.754,0 8.631,2.877 8.631,8.631c0,5.753 -2.877,8.63 -8.631,8.63l-25.759,0l-25.096,24.432l37.046,60.017l15.801,0c5.842,0 8.764,2.921 8.764,8.764c0,5.753 -2.922,8.63 -8.764,8.63l-43.021,0c-5.754,0 -8.631,-2.877 -8.631,-8.63c0,-5.843 2.877,-8.764 8.631,-8.764l6.905,0l-29.478,-47.668l-16.332,15.801l0,31.867l12.747,0c5.754,0 8.631,2.921 8.631,8.764c0,5.753 -2.877,8.63 -8.631,8.63l-44.083,0c-5.754,0 -8.631,-2.877 -8.631,-8.63c0,-5.843 2.877,-8.764 8.631,-8.764l14.34,0l0,-35.851l0,-101.976l-23.104,0Z" style="fill:#b95c7e;fill-rule:nonzero;"/><path id="text362" d="M227.913,17.321c-5.754,0 -8.631,-2.877 -8.631,-8.63c0,-5.754 2.877,-8.631 8.631,-8.631l32.266,0c5.842,0 8.764,2.877 8.764,8.631l0,59.485c9.383,-9.825 20.581,-14.738 33.593,-14.738c7.082,0 13.721,1.615 19.917,4.846c6.197,3.231 11.596,7.569 16.2,13.013c4.603,5.444 8.232,11.751 10.888,18.921c2.655,7.17 3.983,14.739 3.983,22.706c0,8.144 -1.35,15.845 -4.05,23.104c-2.7,7.258 -6.351,13.587 -10.954,18.987c-4.603,5.4 -10.003,9.671 -16.2,12.814c-6.196,3.142 -12.791,4.713 -19.784,4.713c-13.012,0 -24.21,-4.913 -33.593,-14.738l0,6.108c0,5.753 -2.922,8.63 -8.764,8.63c-5.754,0 -8.631,-2.877 -8.631,-8.63l0,-146.591l-23.635,0Zm97.993,65.196c-6.64,-7.879 -14.429,-11.818 -23.37,-11.818c-4.78,0 -9.228,1.151 -13.344,3.453c-4.117,2.301 -7.657,5.399 -10.623,9.294c-2.965,3.895 -5.311,8.388 -7.037,13.478c-1.726,5.089 -2.589,10.423 -2.589,16c0,5.665 0.863,11.043 2.589,16.133c1.726,5.089 4.072,9.56 7.037,13.41c2.966,3.851 6.506,6.927 10.623,9.229c4.116,2.301 8.564,3.452 13.344,3.452c4.692,0 9.073,-1.107 13.145,-3.32c4.072,-2.213 7.635,-5.244 10.689,-9.095c3.054,-3.851 5.444,-8.321 7.17,-13.411c1.727,-5.09 2.59,-10.556 2.59,-16.398c0,-11.862 -3.408,-21.998 -10.224,-30.407Z" style="fill:#943156;fill-rule:nonzero;"/></g><path id="text366" d="M429.521,17.335c-5.843,0 -8.764,-2.877 -8.764,-8.631c0,-5.754 2.921,-8.631 8.764,-8.631l37.842,0c5.843,0 8.764,2.877 8.764,8.631l0,146.458l18.855,0c5.842,0 8.763,2.921 8.763,8.763c0,5.754 -2.921,8.631 -8.763,8.631l-25.76,0c-0.177,0 -0.332,-0.022 -0.464,-0.067c-0.133,-0.044 -0.288,-0.066 -0.465,-0.066c-0.089,0.089 -0.398,0.133 -0.93,0.133c-5.753,0 -8.63,-2.877 -8.63,-8.631l0,-6.108c-9.561,9.826 -20.803,14.739 -33.727,14.739c-6.904,0 -13.433,-1.527 -19.585,-4.581c-6.152,-3.054 -11.552,-7.259 -16.199,-12.614c-4.648,-5.356 -8.343,-11.663 -11.087,-18.922c-2.745,-7.258 -4.117,-15.092 -4.117,-23.502c0,-8.144 1.328,-15.823 3.984,-23.037c2.655,-7.215 6.307,-13.522 10.954,-18.922c4.648,-5.399 10.047,-9.67 16.2,-12.813c6.152,-3.142 12.769,-4.714 19.85,-4.714c12.747,0 23.989,4.913 33.727,14.739l0,-50.855l-29.212,0Zm-4.515,53.378c-4.691,0 -9.095,1.129 -13.211,3.386c-4.117,2.257 -7.68,5.311 -10.689,9.162c-3.01,3.85 -5.378,8.343 -7.104,13.477c-1.726,5.134 -2.589,10.534 -2.589,16.199c0,5.843 0.863,11.309 2.589,16.399c1.726,5.09 4.116,9.56 7.17,13.411c3.054,3.85 6.617,6.882 10.689,9.095c4.072,2.213 8.454,3.32 13.145,3.32c4.692,0 9.096,-1.129 13.212,-3.386c4.116,-2.258 7.701,-5.312 10.755,-9.162c3.054,-3.851 5.444,-8.321 7.17,-13.411c1.727,-5.09 2.59,-10.512 2.59,-16.266c0,-5.665 -0.886,-11.065 -2.656,-16.199c-1.77,-5.134 -4.183,-9.627 -7.237,-13.477c-3.054,-3.851 -6.639,-6.905 -10.755,-9.162c-4.116,-2.257 -8.476,-3.386 -13.079,-3.386Z" style="fill:#de94af;fill-rule:nonzero;"/><path id="text370" d="M529.903,39.285c0.909,-1.033 1.838,-1.549 2.788,-1.549c0.455,0 0.94,0.134 1.457,0.403c0.516,0.268 0.991,0.599 1.425,0.991c0.433,0.393 0.795,0.837 1.084,1.332c0.289,0.496 0.434,0.992 0.434,1.488c0,0.908 -0.434,1.879 -1.301,2.912c-0.868,1.033 -1.921,2.045 -3.161,3.036c-1.239,0.992 -2.54,1.9 -3.903,2.727c-1.364,0.826 -2.541,1.487 -3.532,1.982c-4.214,1.983 -8.097,2.975 -11.65,2.975c-4.296,0 -8.303,-0.723 -12.021,-2.169c-3.718,-1.446 -6.95,-3.418 -9.697,-5.918c-2.747,-2.499 -4.916,-5.442 -6.506,-8.83c-1.591,-3.387 -2.386,-7.022 -2.386,-10.905c0,-3.759 0.754,-7.322 2.262,-10.689c1.507,-3.367 3.563,-6.32 6.165,-8.861c2.603,-2.541 5.639,-4.544 9.109,-6.011c3.47,-1.466 7.167,-2.199 11.092,-2.199c3.8,0 7.353,0.712 10.657,2.137c3.305,1.426 6.176,3.378 8.613,5.856c2.438,2.479 4.348,5.412 5.732,8.799c1.384,3.387 2.076,7.043 2.076,10.968c0,2.726 -1.343,4.089 -4.028,4.089l-43.127,0c0.537,2.396 1.487,4.555 2.85,6.476c1.364,1.921 3.016,3.563 4.958,4.926c1.941,1.363 4.131,2.406 6.568,3.129c2.437,0.723 4.998,1.084 7.683,1.084c1.198,0 2.5,-0.185 3.904,-0.557c1.405,-0.372 2.82,-0.899 4.245,-1.58c1.425,-0.682 2.84,-1.529 4.244,-2.541c1.405,-1.012 2.727,-2.179 3.966,-3.501Zm-32.965,-25.405c-2.809,2.809 -4.647,6.093 -5.515,9.852l38.79,0c-0.496,-2.437 -1.312,-4.627 -2.448,-6.568c-1.136,-1.942 -2.53,-3.584 -4.182,-4.926c-1.653,-1.343 -3.501,-2.376 -5.546,-3.099c-2.045,-0.722 -4.203,-1.084 -6.475,-1.084c-5.743,0 -10.617,1.942 -14.624,5.825Z" style="fill:#de94af;fill-rule:nonzero;"/><path id="path7" d="M552.266,8.055c-2.686,0 -4.028,-1.343 -4.028,-4.028c0,-2.685 1.342,-4.027 4.028,-4.027l20.014,0c2.685,0 4.028,1.342 4.028,4.027c0,2.685 -1.343,4.028 -4.028,4.028l-5.143,0l12.889,32.469l12.826,-32.469l-5.143,0c-2.685,0 -4.028,-1.343 -4.028,-4.028c0,-2.685 1.343,-4.027 4.028,-4.027l20.077,0c2.643,0 3.965,1.342 3.965,4.027c0,2.685 -1.322,4.028 -3.965,4.028l-6.259,0l-17.784,44.986c-0.702,1.735 -1.817,2.603 -3.346,2.603c-0.908,0.041 -1.745,-0.176 -2.509,-0.651c-0.764,-0.475 -1.312,-1.126 -1.642,-1.952l-17.784,-44.986l-6.196,0Z" style="fill:#de94af;fill-rule:nonzero;"/><path id="l-br-logo" d="M3.278,123.506c-1.682,-1.681 -2.7,-3.319 -3.054,-4.912c-0.709,-2.568 0.265,-5.179 2.921,-7.835l42.755,-42.755c4.072,-4.072 8.144,-4.072 12.216,0c4.072,4.072 4.072,8.144 0,12.216l-36.913,36.913l37.444,37.311c4.072,4.072 4.072,8.144 0,12.216c-4.072,4.072 -8.144,4.072 -12.216,0l-43.153,-43.154Z" style="fill:#6f1234;fill-rule:nonzero;"/><path id="r-br-logo" d="M596.057,111.158c1.682,1.682 2.7,3.319 3.054,4.913c0.708,2.567 -0.266,5.178 -2.921,7.834l-42.756,42.755c-4.072,4.072 -8.144,4.072 -12.216,0c-4.072,-4.072 -4.072,-8.144 0,-12.216l36.913,-36.913l-37.444,-37.311c-4.072,-4.072 -4.072,-8.144 0,-12.216c4.072,-4.072 8.144,-4.072 12.216,0l43.154,43.154Z" style="fill:#6f1234;fill-rule:nonzero;"/></g></svg>