<?xml version="1.0" encoding="utf-8"?>
<!-- Generator: Adobe Illustrator 17.0.0, SVG Export Plug-In . SVG Version: 6.00 Build 0)  -->
<!DOCTYPE svg PUBLIC "-//W3C//DTD SVG 1.1//EN" "http://www.w3.org/Graphics/SVG/1.1/DTD/svg11.dtd">
<svg version="1.1" xmlns="http://www.w3.org/2000/svg" xmlns:xlink="http://www.w3.org/1999/xlink" x="0px" y="0px" width="128px"
	 height="128px" viewBox="0 0 128 128" enable-background="new 0 0 128 128" xml:space="preserve">
<g id="Layer_1" display="none">
</g>
<g id="Layer_2">
	<g>
		<ellipse opacity="0.5" fill="#B8CBCD" cx="65.333" cy="111.814" rx="47.667" ry="11.813"/>
		<g>
			<path fill="#B9E3ED" d="M99,102c0,5.5-4.5,10-10,10H42c-5.5,0-10-4.5-10-10V18c0-5.5,4.5-10,10-10h47c5.5,0,10,4.5,10,10V102z"/>
			<path fill="none" stroke="#324654" stroke-width="6" stroke-linecap="round" stroke-linejoin="round" stroke-miterlimit="10" d="
				M99,102c0,5.5-4.5,10-10,10H42c-5.5,0-10-4.5-10-10V18c0-5.5,4.5-10,10-10h47c5.5,0,10,4.5,10,10V102z"/>
		</g>
		<circle fill="#324654" cx="65" cy="101" r="4"/>
		<rect x="43" y="19" fill="#FFFFFF" width="45" height="72"/>
		
			<polygon fill="#FFFFFF" stroke="#324654" stroke-width="4" stroke-linecap="round" stroke-linejoin="round" stroke-miterlimit="10" points="
			51,33 51,64 59,64 66,71 73,64 80,64 80,33 		"/>
		<g>
			<path fill="none" stroke="#324654" stroke-width="4" stroke-linecap="round" stroke-linejoin="round" stroke-miterlimit="10" d="
				M69.4,43.533c0,0-1.801-1.2-4.2-1.2c-2.4,0-4.2,1.2-4.2,3.6c0,4.2,10,3,10,7.801c0,1.8-2.2,3.6-5.2,3.6s-4.8-1.8-4.8-1.8"/>
			
				<line fill="none" stroke="#324654" stroke-width="2" stroke-linecap="round" stroke-linejoin="round" stroke-miterlimit="10" x1="66" y1="38" x2="66" y2="61"/>
		</g>
		
			<polyline fill="none" stroke="#6299B7" stroke-width="4" stroke-linecap="square" stroke-linejoin="round" stroke-miterlimit="10" points="
			43,89 43,19 86,19 		"/>
	</g>
</g>
</svg>
